<svg xmlns="http://www.w3.org/2000/svg" width="16.709" height="16.711" viewBox="0 0 16.709 16.711"><defs><style>.a{fill:#9090a0;}</style></defs><path class="a" d="M.009,15.142l1.568,1.569,3.162-1.818,6.125-6.125,1.249,1.249L14.83,7.3l-.643-.643,1.679-1.679A2.916,2.916,0,1,0,11.741.854L10.063,2.533,9.42,1.89,6.7,4.606,7.952,5.855,1.827,11.98ZM9.42,3.709l.656.655.455-.479,2.121-2.122a1.63,1.63,0,0,1,2.305,2.3L12.843,6.182l-.021.02-.455.455.643.643-.9.9L8.522,4.606ZM8.833,6.793,9.926,7.887,3.95,13.863,1.79,15.1l-.175-.175,1.242-2.16Z" transform="translate(-0.009)"/></svg>