<svg xmlns="http://www.w3.org/2000/svg" width="96.27" height="23.377" viewBox="0 0 96.27 23.377"><defs><style>.a{fill:#0a102e;}</style></defs><g transform="translate(0 0)"><path class="a" d="M561.109,1038.651a1.509,1.509,0,0,1-.485-1.18l-.065-6.593q-.032-2.23-.032-5.559v-1.907a1.509,1.509,0,0,1,.453-1.164,1.558,1.558,0,0,1,1.1-.42,1.738,1.738,0,0,1,1.18.436,1.522,1.522,0,0,1,.5,1.212v.97a3.015,3.015,0,0,1,1.325-1.325,5.482,5.482,0,0,1,2.908-.808,3.608,3.608,0,0,1,1.842.388,1.485,1.485,0,0,1,.646,1.39,1.57,1.57,0,0,1-.388,1.083,1.435,1.435,0,0,1-1.131.436,6.79,6.79,0,0,0-3.749.743,4.437,4.437,0,0,0-1.018.937,1.733,1.733,0,0,0-.436,1.066l.065,4.04.032,5.074a1.509,1.509,0,0,1-.485,1.18,1.685,1.685,0,0,1-2.262,0Z" transform="translate(-474.211 -1015.73)"/><path class="a" d="M332.634,1036.193a8.69,8.69,0,0,1-.7-3.485c0-.046,0-.093,0-.139a12.94,12.94,0,0,0-.864-5.308,8.514,8.514,0,0,0-3.593-3.839q-.213-.116-.433-.219a8.209,8.209,0,0,0-1.056-.408,8.764,8.764,0,0,0-6.719.744c-2.455,1.328-3.652,3.919-5.126,6.145a17.115,17.115,0,0,1-5.988,5.8,8.1,8.1,0,0,1-.778.379,10.689,10.689,0,0,1-2.3.647,9.772,9.772,0,0,1-2,.055,7.108,7.108,0,0,1-1.549-.425,5.566,5.566,0,0,1-3.334-4.375,5.646,5.646,0,0,1,8.672-5.532,3.589,3.589,0,0,1,.633.479,10.977,10.977,0,0,1,.944,1.061c.083.135.179.136-.305.136H304.1a1.489,1.489,0,0,0-1.022.423,1.445,1.445,0,0,0,1.022,2.466h2.07c.477,0,.953-.016,1.429-.01q.859.011,1.719.011a2.966,2.966,0,0,0,2.143-.509c1.211-1.1.294-2.9-.486-3.964a9.52,9.52,0,0,0-4.077-3.207l-.053-.021a8.432,8.432,0,0,0-5.931-.111,8.53,8.53,0,0,0-4.232,12.62,8.885,8.885,0,0,0,7.978,3.83c5.857-.388,9.924-4.866,12.761-9.569.817-1.354,1.608-2.995,3.15-3.814a6.208,6.208,0,0,1,4.879-.372,5.4,5.4,0,0,1,1.515.855,5.841,5.841,0,0,1,.8,8.006,5.7,5.7,0,0,1-6.084,1.884,6.085,6.085,0,0,1-2.37-1.431c-.65-.6-1.263-1.614-2.3-1.257a1.446,1.446,0,0,0-.754,1.622,2.943,2.943,0,0,0,.99,1.39,8.965,8.965,0,0,0,1.556,1.258,8.489,8.489,0,0,0,7.59.8c1.136-.425,2.754-1.22,3.328-2.362a9.023,9.023,0,0,0,.718,1.774c.45.79.647,1.081,1.127,1.244a1.5,1.5,0,0,0,1.884-1.028C333.612,1037.55,332.949,1036.966,332.634,1036.193Zm-24.053-8.505-.136-.177C308.5,1027.579,308.546,1027.638,308.581,1027.688Z" transform="translate(-285.842 -1016.158)"/><path class="a" d="M511.029,1033.862a1.292,1.292,0,0,0-1.74-.209c-.529.387-.8.824-1.641,1.437a5.3,5.3,0,0,1-2.231.961,8.277,8.277,0,0,1-1.845.072,7.187,7.187,0,0,1-1.565-.429,5.622,5.622,0,0,1-3.368-4.419,5.7,5.7,0,0,1,8.76-5.589,3.646,3.646,0,0,1,.639.484,11.089,11.089,0,0,1,.953,1.072c.084.137.181.137-.308.137H504.6a1.506,1.506,0,0,0-1.032.427,1.46,1.46,0,0,0,1.032,2.491h2.091c.482,0,.963-.017,1.444-.01q.868.012,1.736.011c.789,0,1.848.275,2.488-.362.851-.846.167-2.19-.26-3.067a9.332,9.332,0,0,0-1.892-2.636,7.528,7.528,0,0,0-3.141-1.9l-.037-.012-.2-.062a8.423,8.423,0,0,0-4.9-.069,8.307,8.307,0,0,0-2.338,1.084,9.806,9.806,0,0,0-2.369,2.345,9.217,9.217,0,0,0-1.319,3.1,8.431,8.431,0,0,0-.036,3.44,6.32,6.32,0,0,0,.355,1.3,8.7,8.7,0,0,0,6.97,5.392,8.6,8.6,0,0,0,6.538-1.931c.138-.116.272-.236.4-.359C510.134,1036.567,511.906,1035.139,511.029,1033.862Zm-1.9-6.71-.138-.179C509.044,1027.042,509.094,1027.1,509.129,1027.153Z" transform="translate(-428.171 -1015.752)"/><path class="a" d="M445.379,1023.883a1.339,1.339,0,0,1-.554-.973c.055.278-1.252.728-1.454.806a8.494,8.494,0,0,1-10.783-3.963,8.626,8.626,0,0,1,.386-8.6,8.432,8.432,0,0,1,1.756-1.99,8.71,8.71,0,0,1,7-1.787,12.074,12.074,0,0,1,2.932,1.148l-.194-5.841a1.613,1.613,0,0,1,.469-1.163,1.516,1.516,0,0,1,1.131-.485,1.6,1.6,0,0,1,1.147.469,1.5,1.5,0,0,1,.485,1.115q.226,14.737.226,19.94a1.6,1.6,0,0,1-1.616,1.616A1.609,1.609,0,0,1,445.379,1023.883Zm-2.475-3.328.066-.04a4,4,0,0,0,1.7-2q0-4.1-.065-6.528a.066.066,0,0,1-.065-.032c-.891-1.931-3.823-2.354-5.74-1.776a5.913,5.913,0,0,0-3.811,4.9,5.691,5.691,0,0,0,1.047,3.968A5.5,5.5,0,0,0,442.9,1020.555Z" transform="translate(-382.652 -1000.96)"/><path class="a" d="M264.476,1024.074a1.612,1.612,0,0,1-1.065-.468,1.551,1.551,0,0,1-.484-1.081,1.472,1.472,0,0,1-.032-.29q-.033-1.84-.161-8.681t-.129-11.166a1.614,1.614,0,1,1,3.227,0q0,3.261.048,6.261t.129,6.6q.08,3.6.081,5.631c1.118.021-.548.011,1.765-.032s1.873-.053,3.078-.032a1.483,1.483,0,0,1,1.129.484,1.645,1.645,0,0,1,.452,1.162,1.48,1.48,0,0,1-.484,1.13,1.642,1.642,0,0,1-1.162.452c-1.162-.021-.964,0-3.8.065A13.706,13.706,0,0,1,264.476,1024.074Z" transform="translate(-262.604 -1000.775)"/></g></svg>