<svg id="Group_21207" data-name="Group 21207" xmlns="http://www.w3.org/2000/svg" width="43.999" height="47.854" viewBox="0 0 43.999 47.854">
  <path id="calendar-alt-solid" d="M0,52.322a4.606,4.606,0,0,0,4.714,4.486H39.285A4.606,4.606,0,0,0,44,52.322V26.9H0ZM31.428,34a1.155,1.155,0,0,1,1.179-1.122h3.928A1.155,1.155,0,0,1,37.713,34v3.739a1.155,1.155,0,0,1-1.179,1.122H32.606a1.155,1.155,0,0,1-1.179-1.122Zm0,11.964a1.155,1.155,0,0,1,1.179-1.122h3.928a1.155,1.155,0,0,1,1.179,1.122V49.7a1.155,1.155,0,0,1-1.179,1.122H32.606A1.155,1.155,0,0,1,31.428,49.7ZM18.857,34a1.155,1.155,0,0,1,1.179-1.122h3.928A1.155,1.155,0,0,1,25.142,34v3.739a1.155,1.155,0,0,1-1.179,1.122H20.035a1.155,1.155,0,0,1-1.179-1.122Zm0,11.964a1.155,1.155,0,0,1,1.179-1.122h3.928a1.155,1.155,0,0,1,1.179,1.122V49.7a1.155,1.155,0,0,1-1.179,1.122H20.035A1.155,1.155,0,0,1,18.857,49.7ZM6.286,34a1.155,1.155,0,0,1,1.179-1.122h3.928A1.155,1.155,0,0,1,12.571,34v3.739a1.155,1.155,0,0,1-1.179,1.122H7.464a1.155,1.155,0,0,1-1.179-1.122Zm0,11.964a1.155,1.155,0,0,1,1.179-1.122h3.928a1.155,1.155,0,0,1,1.179,1.122V49.7a1.155,1.155,0,0,1-1.179,1.122H7.464A1.155,1.155,0,0,1,6.286,49.7Z" transform="translate(0 -8.954)" fill="#9653ff" opacity="0.2"/>
  <path id="calendar-alt-solid-2" data-name="calendar-alt-solid" d="M39.285,5.982H34.571V1.5A1.539,1.539,0,0,0,33,0H29.856a1.539,1.539,0,0,0-1.571,1.5V5.982H15.714V1.5A1.539,1.539,0,0,0,14.143,0H11A1.539,1.539,0,0,0,9.428,1.5V5.982H4.714A4.606,4.606,0,0,0,0,10.468v4.486H44V10.468A4.606,4.606,0,0,0,39.285,5.982Z" transform="translate(0 0)" fill="#9653ff"/>
</svg>
